<svg width="512" height="512" viewBox="0 0 512 512" fill="none" xmlns="http://www.w3.org/2000/svg">
<rect width="512" height="512" fill="white"/>
<path d="M301 323.5V286H316V323.5H301ZM301 346V331H316V346H301ZM136 151H376V319.047L361 289.047V166H151V245.336L203.5 192.953L270.531 259.984L263.5 274.047L203.5 214.047L151 266.664V316H242.523L235.023 331H136V151ZM323.5 196C321.469 196 319.711 195.258 318.227 193.773C316.742 192.289 316 190.531 316 188.5C316 186.469 316.742 184.711 318.227 183.227C319.711 181.742 321.469 181 323.5 181C325.531 181 327.289 181.742 328.773 183.227C330.258 184.711 331 186.469 331 188.5C331 190.531 330.258 192.289 328.773 193.773C327.289 195.258 325.531 196 323.5 196ZM241 361L308.5 226L376 361H241ZM262.211 347.875H354.789L308.5 255.297L262.211 347.875Z" fill="#1A191E"/>
</svg>
